# xmcd CD database file
#
# Track frame offsets:
#	150
#	11739
#	22182
#	31545
#	47854
#	61780
#	75532
#	93695
#	102174
#	112045
#	122337
#	129998
#	138390
#
# Disc length: 2015 seconds
#
# Revision: 0
# Processed by: cddbd v1.4PL0 Copyright (c) Steve Scherf et al.
# Submitted via: Feurio! 1.63 - http://www.feurio.com
#
DISCID=a207dd0d
DTITLE=Matt Palmer - Fiddle Patch
DYEAR=1900
DGENRE=
TTITLE0=Fiddle Patch
TTITLE1=Sweet Georgia Brown
TTITLE2=Uncle Gene's Rag
TTITLE3=The Waltz You Saved For Me
TTITLE4=San Antonio Rose
TTITLE5=Lady Be Good
TTITLE6=Faded Love
TTITLE7=Redwing
TTITLE8=Lonesome Fiddle Blues
TTITLE9=Kansas City Kitty
TTITLE10=Blackberry Blossom
TTITLE11=Arkansa Traveler
TTITLE12=Ragtime Annie
EXTD=
EXTT0=
EXTT1=
EXTT2=
EXTT3=
EXTT4=
EXTT5=
EXTT6=
EXTT7=
EXTT8=
EXTT9=
EXTT10=
EXTT11=
EXTT12=
PLAYORDER=
